<svg width="1393" height="21" viewBox="0 0 1393 21" fill="none" xmlns="http://www.w3.org/2000/svg">
<path d="M1385.95 7.17073V21H1393V0H1332.04V21H1339.09V7.17073H1385.95Z" fill="white"/>
<path d="M1290.23 21L1319.95 7.68293V21H1327V0H1319.95L1289.22 14.3415H1276.12V0H1269.07V21H1290.23Z" fill="white"/>
<path d="M71.035 21V14.8537L94.7133 21H1264.03V14.3415L95.7209 14.3415L80.6071 10.7561L95.7209 6.65854H1264.03V0L95.2171 0L71.035 6.65854V0H64.4857V21H71.035Z" fill="white"/>
<path d="M0 0V21H59.4477V14.8537H6.54933V6.65854H59.4477V0H0Z" fill="white"/>
</svg>
