<?xml version="1.0" encoding="UTF-8"?>
<svg id="Layer_1" data-name="Layer 1" xmlns="http://www.w3.org/2000/svg" viewBox="0 0 579.46 578.2">
  <defs>
    <style>
      .cls-1 {
        fill: #fff;
      }
    </style>
  </defs>
  <path class="cls-1" d="M447.68,505.41c4.37,5.99,8.57,11.75,12.75,17.47-4.55,5.62-40.47,25.91-59.52,33.64-44.6,18.11-90.88,24.99-138.79,20.2-50.51-5.05-96.63-22.26-138.24-51.3-29.81-20.81-54.79-46.45-74.98-76.69,.08-.14,.15-.29,.23-.43,2.73,.93,5.45,1.9,8.2,2.8,2.77,.91,5.57,1.75,8.62,2.7,.21-5.97,.41-11.59,.6-17.2,.15-.04,.3-.09,.46-.13,.35,.41,.74,.79,1.04,1.23,11.37,16.76,24.42,32.09,39.23,45.9,6.79,6.33,13.79,12.4,21.3,17.86,4.88,3.55,9.81,7.04,14.83,10.4,1.44,.96,2.04,2.08,2.37,3.69,1.26,6.06,2.67,12.09,3.96,18.14,.32,1.49,1.02,2.47,2.41,3.16,5.6,2.81,11.16,5.69,16.71,8.59,1.22,.64,2.32,.64,3.57,.07,5.63-2.57,11.31-5.04,16.92-7.65,1.37-.64,2.51-.76,3.95-.19,18.15,7.18,36.89,12.19,56.16,15.2,19.29,3.02,38.7,3.95,58.18,2.7,24.47-1.57,48.32-6.34,71.46-14.47,23.85-8.38,46.12-19.82,66.71-34.51,.53-.38,1.09-.7,1.88-1.2Zm-121.53,53.75c.69,.82,1.07,1.34,1.52,1.8,1.9,1.95,3.8,3.91,5.74,5.83,2.56,2.54,2.57,2.5,6.16,1.88,21-3.63,41.29-9.63,60.95-17.84,18.15-7.58,35.35-16.9,51.53-28.08,.63-.44,1.22-.95,1.79-1.4-1.68-3.07-5.37-8.07-6.73-9.12-36.36,25.41-76.66,40.94-120.96,46.93Zm-32.45,13.71c.09-.17,.17-.33,.26-.5-2.11-3.01-4.31-5.96-6.29-9.05-.96-1.5-2.08-1.96-3.79-2-15.36-.39-30.58-2.05-45.66-5.01-15.59-3.06-30.79-7.43-45.61-13.14-1.34-.52-2.44-.53-3.76,.12-3.43,1.7-6.95,3.24-10.42,4.85-.43,.2-.85,.45-1.68,.89,37.6,16.25,76.45,24.1,116.95,23.84ZM62.55,457.98c-.1,.13-.21,.26-.31,.4,13.68,18.3,29.37,34.7,47.01,49.24,10.96,9.03,22.51,17.24,35.15,24.73-.18-.99-.26-1.48-.36-1.96-.82-3.89-1.69-7.78-2.43-11.69-.24-1.27-.85-2.07-1.9-2.78-4.32-2.95-8.66-5.89-12.85-9.01-20.52-15.29-38.52-33.13-54.06-53.46-.42-.56-.89-1.08-1.34-1.61-.13,.04-.26,.08-.39,.13v8.32c-3.04-.82-5.78-1.56-8.53-2.3Zm229.8,103.25c-.06,.2-.11,.4-.17,.59,.26,.42,.5,.87,.79,1.27,1.91,2.62,3.88,5.2,5.73,7.86,.89,1.28,1.91,1.82,3.51,1.68,8.22-.72,16.44-1.35,24.67-2.04,.92-.08,1.84-.31,3.02-.51-.46-.59-.74-1-1.07-1.35-2.37-2.52-4.8-5-7.12-7.57-.89-.98-1.81-1.27-3.11-1.16-5.8,.47-11.61,.9-17.42,1.21-2.93,.16-5.88,.03-8.82,.03Z"/>
  <path class="cls-1" d="M267.45,.7c-4.29,4.04-8.67,7.9-12.91,12.14,5.09,3.11,9.96,6.09,14.83,9.07l-.11,.42c-.39,.08-.78,.2-1.17,.23-13.84,1.05-27.5,3.21-41,6.39-21.25,5.01-41.58,12.51-60.96,22.56-1.51,.78-2.77,.84-4.37,.32-5.88-1.91-11.83-3.64-17.73-5.49-1.44-.45-2.65-.37-3.95,.51-5.19,3.5-10.43,6.93-15.67,10.36-1.07,.7-1.62,1.57-1.72,2.87-.5,6.24-1.12,12.48-1.58,18.72-.11,1.42-.5,2.42-1.65,3.35-12.59,10.25-24.14,21.59-34.58,34.01-9.11,10.84-17.35,22.3-24.66,34.46-15.31,25.48-26.04,52.74-32.27,81.78-3.85,17.93-5.72,36.07-5.85,54.4,0,.8,0,1.6,0,2.72-7.36,.1-14.54,.06-21.65,.09-1.48-4.5,1.08-36.36,3.98-52.43,8.26-45.78,26.45-87.24,54.64-124.17,31.77-41.62,72.1-72.25,120.57-92.07C207.76,9.44,237.03,2.69,267.45,.7ZM117.57,62.6c-7.2,3.78-31.67,26.61-43.89,40.79-12.58,14.6-32.94,44.53-33.52,49.36,.89-.07,1.76-.12,2.63-.21,2.71-.26,5.42-.63,8.14-.76,1.8-.09,2.88-.78,3.81-2.37,7.96-13.58,17.13-26.3,27.38-38.25,9.96-11.61,20.81-22.31,32.61-32.04,1.24-1.02,1.88-2.07,1.91-3.71,.05-2.8,.34-5.59,.55-8.38,.1-1.39,.24-2.77,.38-4.43ZM252.55,7.8c-.08-.16-.15-.32-.23-.48-36.97,4.81-71.69,16.38-104.57,35.01,1.15,.4,1.83,.64,2.51,.86,3.37,1.08,6.76,2.07,10.09,3.26,1.65,.59,3,.47,4.59-.33,26.47-13.48,54.41-22.41,83.81-26.72,1.65-.24,3.3-.52,4.96-.77,.03-.13,.07-.26,.1-.39-2.39-1.35-4.79-2.7-7.43-4.19,2.17-2.2,4.17-4.21,6.17-6.23ZM35.86,187.69l-.48-.41c-3.4,.92-6.78,1.95-10.21,2.73-2.03,.46-3.04,1.48-3.73,3.46-10.16,28.98-15.52,58.81-16.08,89.5-.01,.71,0,1.42,0,2.07,2.46,.52,9.52,.53,11.41,.02,.24-16.61,1.88-33.16,5.09-49.54,3.21-16.37,7.94-32.29,14.02-47.83Zm-11.34-2.39c1.02-.21,1.58-.31,2.13-.45,3.14-.78,6.26-1.65,9.43-2.32,1.53-.32,2.35-1.06,3.02-2.47,3.42-7.25,6.97-14.44,10.47-21.65,.28-.58,.55-1.15,.92-1.92-.56-.04-.9-.12-1.23-.08-3.51,.41-7.01,.88-10.52,1.23-1.41,.14-2.23,.76-2.81,2.05-3.17,7.04-6.41,14.05-9.6,21.08-.6,1.33-1.08,2.71-1.8,4.52Z"/>
  <path class="cls-1" d="M560.71,391.15c-.86-2.81-1.69-5.63-2.59-8.42-.87-2.73-1.8-5.44-2.79-8.4-4.95,3.28-9.7,6.43-14.45,9.58l-.39-.25c.2-.64,.38-1.28,.61-1.91,6.91-18.97,11.67-38.47,14.2-58.5,1.91-15.1,2.44-30.26,1.77-45.46-.08-1.7,.44-2.87,1.57-4.09,4.21-4.54,8.28-9.21,12.44-13.79,.91-1,1.33-2.03,1.11-3.4-1.02-6.33-2.01-12.66-2.96-19-.18-1.22-.74-1.99-1.79-2.59-5.51-3.14-10.96-6.36-16.5-9.46-1.27-.71-1.93-1.57-2.3-2.97-11.96-45.25-34.18-84.75-66.57-118.52-7.75-8.08-16.05-15.55-24.74-22.62-9.63-7.83-19.89-14.72-30.4-21.27-2.43-1.51-4.94-2.88-7.62-4.44,3.56-6.41,7.01-12.64,10.58-19.08,.82,.37,1.56,.62,2.23,1.01,10.03,5.78,19.79,11.99,29.09,18.88,26.55,19.68,49.23,43.11,67.85,70.43,16.26,23.85,28.69,49.57,37.3,77.11,5.46,17.49,9.21,35.34,11.25,53.57,5.05,45.16-.25,89.07-15.72,131.77-.22,.61-.52,1.2-.78,1.8-.13,0-.26,.01-.4,.02Zm-42.92-270.95c-1.42,4.06-2.58,7.62-3.92,11.11-.57,1.48-.35,2.57,.54,3.86,17.94,26.02,30.97,54.31,39.1,84.86,.33,1.26,.94,2.03,2.07,2.64,3.44,1.85,6.82,3.81,10.22,5.71,.43,.24,.89,.42,1.74,.82-8.92-39.94-25.4-75.98-49.75-109Zm55.32,145.59c-.26-.17-.52-.34-.78-.5-.25,.45-.42,.96-.75,1.33-2.37,2.63-4.67,5.33-7.19,7.81-1.49,1.47-2.03,2.96-1.94,5.07,.68,16.54-.16,33.01-2.54,49.4-1.97,13.59-4.95,26.96-8.91,40.11-.21,.7-.7,1.4-.27,2.39,2.31-1.66,4.49-3.22,6.85-4.91,1.14,2.95,2.17,5.62,3.2,8.28,11.52-35.62,15.44-71.91,12.33-108.98ZM431.05,43.26c-1.88,3.27-3.7,6.42-5.6,9.72,3.04,1.87,5.86,3.56,8.65,5.33,2.8,1.77,5.59,3.57,8.33,5.43,2.74,1.86,5.45,3.77,8.12,5.73,2.67,1.96,5.31,3.96,7.91,6.02,2.6,2.05,5.17,4.15,7.69,6.29,2.53,2.14,5.01,4.34,7.46,6.57,2.45,2.23,4.84,4.52,7.22,6.83,2.34,2.28,4.63,4.62,7.27,7.27,.68-4.06,1.18-7.62,1.91-11.15,.4-1.93-.04-3.25-1.49-4.66-16.82-16.35-35.29-30.52-55.53-42.37-.55-.32-1.14-.59-1.94-1Zm63.45,49.66c-.86,4.49-1.62,8.53-2.43,12.57-.2,1.01,.28,1.65,.86,2.36,5.36,6.55,10.7,13.11,16.06,19.67,.26,.31,.59,.56,1.02,.98,.33-.81,.61-1.39,.81-2,.98-3.01,1.88-6.05,2.93-9.03,.48-1.35,.25-2.36-.67-3.42-5.66-6.49-11.27-13.02-16.91-19.53-.42-.48-.92-.89-1.67-1.59Z"/>
  <path class="cls-1" d="M49.87,429.28c-.85-.36-1.46-.57-2.03-.87-4.88-2.59-9.75-5.22-14.64-7.78-1.06-.55-1.62-1.41-2.13-2.42-6.46-12.78-11.93-25.97-16.43-39.56-4.62-13.94-8.23-28.15-10.58-42.65-1.14-7.05-1.91-14.16-2.83-21.25-.08-.65-.01-1.32-.01-2.3,7.17-.66,14.34-1.19,21.76-1.8,.22,1.81,.44,3.46,.62,5.11,3.39,32.22,12.37,62.8,26.85,91.77,.79,1.58,1.08,3.06,.87,4.84-.52,4.54-.78,9.1-1.14,13.66-.08,1.01-.19,2.02-.3,3.25ZM7.09,316.21c-.09,.47-.2,.75-.19,1.03,.02,.66,.08,1.32,.15,1.98,1.78,15.55,4.75,30.86,9.02,45.92,4.88,17.2,11.32,33.8,19.32,49.79,.32,.65,.67,1.44,1.24,1.78,2.76,1.66,5.6,3.19,8.68,4.91,.16-1.07,.28-1.77,.36-2.48,.17-1.61,.24-3.24,.49-4.84,.3-1.89-.05-3.56-.91-5.3-14.36-28.93-23.3-59.46-26.86-91.56-.08-.7-.22-1.4-.37-2.29-3.79,.37-7.35,.71-10.93,1.05Z"/>
  <path class="cls-1" d="M283.72,10.83c.98-.69,1.73-1.27,2.53-1.77,4.22-2.7,8.47-5.35,12.67-8.08,1.18-.76,2.37-1.04,3.75-.97,9.57,.48,19.1,1.4,28.58,2.82,22.36,3.34,44.07,9.17,65.06,17.59,4.03,1.62,8,3.35,12,5.05,.33,.14,.61,.38,1.15,.73-2.98,6.56-5.96,13.09-9.03,19.84-1.99-.84-3.87-1.61-5.73-2.41-21.34-9.2-43.51-15.49-66.49-18.91-8.82-1.31-17.68-2.21-26.6-2.65-.84-.04-1.79-.23-2.47-.68-4.85-3.21-9.65-6.5-14.47-9.77-.24-.16-.44-.37-.94-.79Zm119.7,18.43c-.86-.42-1.48-.77-2.15-1.03-4.65-1.87-9.26-3.83-13.96-5.56-25.67-9.48-52.16-15.16-79.47-16.99q-6.46-.43-11.91,3c-1.04,.66-2.04,1.36-3.26,2.16,2.45,1.73,4.7,3.27,6.88,4.88,.99,.73,2.03,1.06,3.26,1.12,9.21,.41,18.37,1.37,27.47,2.79,22.97,3.57,45.16,9.9,66.52,19.1,.65,.28,1.33,.48,2.12,.77,1.51-3.45,2.92-6.68,4.48-10.24Z"/>
  <path class="cls-1" d="M544.97,401.67c.39,2.31,.77,4.33,1.05,6.36,.54,3.94,1,7.9,1.54,11.84,.16,1.14,0,2.11-.54,3.16-5.81,11.46-12.75,22.23-20.03,32.78-13.28,19.24-28.96,36.35-46.58,51.69-.54,.47-1.12,.91-1.88,1.52-4.78-5.58-9.46-11.03-14.26-16.62,.54-.56,.96-1.05,1.44-1.46,10.39-8.96,20.01-18.68,28.83-29.17,9.06-10.78,17.44-22.07,24.52-34.28,2.84-4.9,5.55-9.88,8.35-14.81,.35-.61,.86-1.23,1.45-1.59,4.97-3.02,9.98-5.99,14.99-8.96,.24-.14,.52-.21,1.12-.45Zm-3.69,8.01c-2.43,1.38-4.43,2.62-6.51,3.68-1.64,.84-2.77,2-3.63,3.66-7.02,13.42-15.2,26.1-24.41,38.11-10.3,13.43-21.76,25.78-34.37,37.08-.52,.47-.98,1.01-1.52,1.57,2.55,2.88,4.93,5.57,7.27,8.22,.4-.16,.63-.2,.8-.33,.57-.46,1.13-.94,1.68-1.44,13.4-12.07,25.55-25.29,36.43-39.67,9.18-12.13,17.32-24.93,24.4-38.39,.47-.89,1.04-1.93,.98-2.85-.21-3.07-.69-6.13-1.12-9.64Z"/>
</svg>