<svg width="1028" height="254" viewBox="0 0 1028 254" fill="none" xmlns="http://www.w3.org/2000/svg">
<path d="M15.1885 96H113L150 127L113 158.5H15.328M238.672 158.5H174.5L210.5 127L174.5 96H238.812M243 127C243 191.065 191.065 243 127 243C62.935 243 11 191.065 11 127C11 62.935 62.935 11 127 11C191.065 11 243 62.935 243 127Z" stroke="white" stroke-width="22"/>
<path d="M273.188 96H381V158.5H273.328M496.672 158.5H446.5V96H496.812M501 127C501 191.065 449.065 243 385 243C320.935 243 269 191.065 269 127C269 62.935 320.935 11 385 11C449.065 11 501 62.935 501 127Z" stroke="white" stroke-width="22"/>
<path d="M531.188 96H589L653.5 158.5M653.5 158.5H531.328M653.5 158.5H694.5M694.5 158.5H754.672M694.5 158.5L754.812 96M759 127C759 191.065 707.065 243 643 243C578.935 243 527 191.065 527 127C527 62.935 578.935 11 643 11C707.065 11 759 62.935 759 127Z" stroke="white" stroke-width="22"/>
<path d="M789.188 96H847M847 96L921.5 158.5M847 96H939.906M921.5 158.5H789.328M921.5 158.5H1012.67M1012.81 96C999.252 46.9863 954.329 11 901 11C836.935 11 785 62.935 785 127C785 191.065 836.935 243 901 243C954.147 243 998.946 207.258 1012.67 158.5M1012.81 96C1015.54 105.868 1017 116.264 1017 127C1017 137.918 1015.49 148.484 1012.67 158.5M1012.81 96H939.906M939.906 96L1012.67 158.5" stroke="white" stroke-width="22"/>
</svg>
